PathFileType	4	(X/Y/Z)	RBDS08\RBDS08runT35.trc
DataRate	CameraRate	NumFrames	NumMarkers	Units	OrigDataRate	OrigDataStartFrame	OrigNumFrames
150.000000	150.000000	6	33	mm	150.000000	3375	4500
Frame#	Time	L.ASIS			L.Heel.Bottom			L.Heel.Lateral			L.Heel.Top			L.Iliac.Crest			L.MT1			L.MT5			L.PSIS			L.Shank.Bottom.Lateral			L.Shank.Bottom.Medial			L.Shank.Top.Lateral			L.Shank.Top.Medial			L.Thigh.Bottom.Lateral			L.Thigh.Bottom.Medial			L.Thigh.Top.Lateral			L.Thigh.Top.Medial			R.ASIS			R.ASY			R.Heel.Bottom			R.Heel.Lateral			R.Heel.Top			R.Iliac.Crest			R.MT1			R.MT5			R.PSIS			R.Shank.Bottom.Lateral			R.Shank.Bottom.Medial			R.Shank.Top.Lateral			R.Shank.Top.Medial			R.Thigh.Bottom.Lateral			R.Thigh.Bottom.Medial			R.Thigh.Top.Lateral			R.Thigh.Top.Medial			
		X1	Y1	Z1	X2	Y2	Z2	X3	Y3	Z3	X4	Y4	Z4	X5	Y5	Z5	X6	Y6	Z6	X7	Y7	Z7	X8	Y8	Z8	X9	Y9	Z9	X10	Y10	Z10	X11	Y11	Z11	X12	Y12	Z12	X13	Y13	Z13	X14	Y14	Z14	X15	Y15	Z15	X16	Y16	Z16	X17	Y17	Z17	X18	Y18	Z18	X19	Y19	Z19	X20	Y20	Z20	X21	Y21	Z21	X22	Y22	Z22	X23	Y23	Z23	X24	Y24	Z24	X25	Y25	Z25	X26	Y26	Z26	X27	Y27	Z27	X28	Y28	Z28	X29	Y29	Z29	X30	Y30	Z30	X31	Y31	Z31	X32	Y32	Z32	X33	Y33	Z33	

3376	22.5	2086.385795021836	952.039176914468	861.9202688256231	1730.884309277955	498.8608775788009	908.1085782020882	1758.965720408562	476.6909170022372	862.7708303513701	1781.513938438238	494.6669160153137	916.9453626411572	2026.625615265759	1022.752698440941	821.5894602603723	1791.887898587789	277.8158733444222	926.8245868452252	1779.114550823445	323.3319811790302	825.2718618968659	1911.889896070539	995.0640523405375	904.1632757222503	1880.538651933752	455.9517321788146	859.4832908201109	1873.338956419901	492.5980431002175	895.2601416545083	1957.278199112396	479.2582719169211	848.1643012450753	1954.51592473518	514.7359113406353	887.7488789613866	2165.093326249989	612.4822233858234	805.4364392644441	2114.014741733828	574.7465265382722	842.1765629374534	2095.598223589485	698.1442130998829	798.1121736785503	2046.263678474972	662.0654246005406	832.162554372199	2056.746057441663	970.6407194075281	1096.669724408909	-25251737633.9952	6192343072.262576	-13184564398.44096	1704.006872942139	39.25517125888355	983.459740495302	1737.324957957739	54.30432667648743	1021.738725774002	1719.291046988232	87.22208415515931	979.0321595407983	1990.003629113491	1031.657512572022	1112.909252988981	1923.884907771536	49.12347369522757	919.2174030618432	1902.117292817984	42.11137842252749	1027.003371004038	1900.024703243057	1008.51237209805	1000.241884750147	1821.837436535614	166.8470107222215	1033.314189157914	1792.607098610459	191.0593789641438	993.1282824784264	1849.208073698171	240.6553758507029	1054.067547034741	1824.799991148832	262.2231539889912	1010.731328965463	1992.160476356007	562.4029126349362	1111.21183800805	1934.340611848648	558.9392627154979	1066.624248210624	1969.020053575271	669.1367746188614	1131.03967540999	1914.422359887006	665.2628242235597	1089.197082928032	
3377	22.50666666666667	2087.076008645182	957.1209949334716	863.3788253076521	1741.469102114634	484.5799960230558	906.7921931471752	1771.079367677812	464.189157365468	861.6679303511411	1792.211122629546	483.7293263881243	915.7991404146164	2028.689728619452	1027.958537096495	822.2206195753769	1816.38949618627	267.9593234897064	926.3329698210421	1801.164224321047	312.3788116042711	824.5594504548772	1912.397885928766	999.3999203617908	904.1244693720373	1894.038710092472	450.1010533377327	858.8815822875798	1884.784935410563	486.5973978821169	894.3806572400825	1969.559464851651	477.3746289767188	847.7190711388	1964.783096224082	512.9172399054036	886.9784830562562	2173.847947267851	622.6399798093967	805.2800523219853	2123.954375973854	583.3486865212191	842.0922023645539	2101.664561357379	706.0012359722405	797.7587030851995	2053.338777317833	668.3383956366656	831.6315215666988	2056.663155281974	972.8471373234311	1096.895056270235	-25276457801.76181	6198406307.760735	-13197470375.46661	1680.471647933309	42.46207641678885	983.2792116712189	1714.019082676136	57.141565578373	1021.664098127636	1696.268865209663	90.32402236634465	978.9878492580716	1992.862266142783	1035.609004576736	1113.611445964042	1900.227130949392	49.17794531465037	919.0254920084503	1878.313623929446	42.45358863550205	1026.437883358768	1900.375508085302	1012.073503476699	1000.700457140859	1799.361323028065	169.7001213437649	1033.044465754029	1770.174087716517	194.1347652692482	992.9076480615799	1827.145697748457	243.3502565758664	1053.7893163244	1802.903239972866	265.0713517483215	1010.446722336178	1976.628850314635	564.9369915339415	1110.616924305807	1918.646861304667	563.9743005773928	1066.251209313713	1958.250671801713	672.5498415442252	1130.400466789384	1903.465476003184	671.059277637512	1088.699500585267	
3378	22.51333333333334	2088.032750510695	962.3731427659334	865.0381174730198	1752.61066775657	469.2074359797528	905.6316217155725	1783.621485097217	450.7458419598944	860.7444570817116	1803.24597211453	471.7888274403108	914.7777042259594	2031.284529489693	1033.526185206169	822.7970656731374	1841.475753898464	258.0329063132825	926.0369277495046	1823.718355148102	301.2053487983256	824.0322110357621	1913.207264483382	1004.048835191464	903.9582347646177	1907.522670560003	443.694665894382	858.3913219791871	1896.153691789269	479.8690596896061	893.6438769199536	1981.558773984938	475.0213717352974	847.351480785667	1974.692759452435	510.470280890104	886.3342566226379	2181.974464842568	632.9616453148789	805.2410548753404	2133.24327847334	592.3404218760214	842.2103533852702	2107.404567448508	714.115311094575	797.4095839859413	2060.080384989728	675.0859102909458	831.2062193067893	2056.853081870583	975.2337580256204	1097.13630389172	-25301194097.44301	6204473499.847718	-13210384771.92705	1657.202774680881	46.773998939096	982.9898780131373	1691.056451754322	60.88630120769994	1021.459950212729	1673.761491408758	94.42740809931092	978.8037121552995	1996.175584991865	1039.718670160249	1114.147669018946	1876.681352297745	49.23388030712151	918.7753314803862	1854.625494929846	43.0111543378551	1025.784637373069	1901.006901100086	1015.780138055692	1001.114803378298	1777.143376614315	173.3729282871737	1032.669527360448	1747.927704342657	198.0144434635115	992.601691250071	1805.209349519047	246.9128101536167	1053.455190374958	1781.116774526943	268.7540197045425	1010.104214700693	1961.080782642443	568.3569748902593	1109.987904788439	1903.071554351773	570.0346770831745	1065.791534086957	1947.632263028042	676.634413339193	1129.771947381403	1892.784748732857	677.6510039811342	1088.187453610814	
3379	22.52	2089.205976997093	967.7252988025352	866.7869087824355	1764.496611989099	452.8652224039941	904.6093560589738	1796.771563100635	436.4586873168334	859.9807498636085	1814.791244669837	458.9210431135476	913.8804465923528	2034.127249367286	1039.334183252592	823.2871379386909	1867.142910945637	248.1556564385365	925.9286856890586	1846.840486390541	289.9123893264969	823.6853256335239	1914.27065015447	1008.968816838702	903.7227248600237	1921.119324008898	436.7688888027409	858.0145743403714	1907.604814413654	472.4297943926342	893.0591637767335	1993.387794036175	472.1814062395068	847.0611605266674	1984.392617763313	507.3570933558506	885.8283190226255	2189.457141046415	643.3519581703109	805.3141545204298	2141.835848398339	601.591757425511	842.4813942224739	2112.78311284939	722.4122383976695	797.07517067393	2066.423102968991	682.204589271474	830.8508188590839	2057.302222948334	977.7206389575417	1097.393617260102	-25325946526.29817	6210544649.814056	-13223307590.56766	1634.349869721279	52.34232771893079	982.538950533161	1668.573532310667	65.65307017966428	1021.077513321645	1651.94760369899	99.65261586207433	978.4332745214896	1999.765719079969	1043.893417780637	1114.480674249641	1853.324392166883	49.24776475562655	918.4662397422055	1831.117836447182	43.7856931763441	1025.072234019068	1901.917870637956	1019.617285138248	1001.52315488418	1755.324456162834	177.9131449815447	1032.182331396265	1726.069325998945	202.7439135278891	992.1638555414386	1783.545240558749	251.3863846936472	1053.062033347638	1759.629099578013	273.315638359271	1009.673248156258	1945.689593073189	572.6399292257914	1109.421062217785	1887.780623617136	577.0558506201452	1065.351083521336	1937.283916870875	681.3550309271127	1129.228293933324	1882.498698125681	684.9641130236237	1087.740045789914	
3380	22.52666666666667	2090.54146597849	973.1156389286997	868.5046941992886	1777.281965093865	435.6847221164385	903.7162557760061	1810.677036453035	421.4360300762729	859.3593954690934	1826.995961782648	445.2136123255659	913.1090390007224	2036.953405563148	1045.259362818016	823.6706985483595	1893.374663890105	238.4258950765211	925.9882795169434	1870.569316465934	278.5920560553074	823.5067793820489	1915.533853125617	1014.112530275464	903.4846229047922	1934.944226078182	429.365108641268	857.7500242519998	1919.284579543588	464.3090408595418	892.6311427101321	2005.151308933892	468.8488005193302	846.8498062928045	1994.022369637588	503.5581910216898	885.4693589318161	2196.279012929669	653.7214035576851	805.4956568766549	2149.687388912925	610.9740337574716	842.8499168865101	2117.759890840452	730.8192430150268	796.7702861792562	2072.302043472911	689.5892514580838	830.5326517263812	2058.003145316845	980.2292149841553	1097.648154921832	-25350715093.58664	6216619758.950276	-13236238834.13382	1612.085321914146	59.2833505570482	981.865631120318	1646.713953695455	71.52804285631495	1020.466644114475	1631.016614430667	106.0817318292269	977.8310602966083	2003.496696462734	1048.049748125338	1114.596239157801	1830.243940990608	49.17828866066912	918.1019893876251	1807.853202191684	44.76749086383198	1024.336021661144	1903.101469545845	1023.575316613841	1001.967249541667	1734.054762563408	183.3424586093921	1031.581032854316	1704.820778277989	208.3347946810786	991.5457369843025	1762.310165619418	256.789445845801	1052.60102687976	1738.644843512035	278.769804171159	1009.115017093889	1930.633416389603	577.742053711243	1109.011841997174	1872.937974878737	584.9418673645598	1065.03895934512	1927.319808256613	686.6635223848622	1128.843355962796	1872.715479749846	692.9019646606775	1087.436158383426	
3381	22.53333333333333	2091.982376983654	978.4881965560929	870.0747424818321	1791.084281271058	417.8012884684853	902.9532186773345	1825.447659335477	405.7922506947259	858.8682932747994	1839.979907524044	430.762888162372	912.4686901952501	2039.540984182654	1051.184813590627	823.939867861752	1920.142567355494	228.9208559642423	926.1852958407859	1894.916202206139	267.3267780483856	823.4778461536654	1916.939940705718	1019.425213494981	903.3095391465102	1949.092931975854	421.5265771248737	857.5935243455675	1931.318084693926	455.5469547921187	892.3594767631145	2016.940732660508	465.0257930510005	846.7204988082735	2003.705123451651	499.0706226286876	885.2618663614915	2202.422462079632	663.9781128305926	805.7840789773228	2156.755754501206	620.3562635173114	843.260534318244	2122.292879086045	739.2577512151142	796.5129389075992	2077.656872878357	697.1298848778836	830.2260232672108	2058.952784254786	982.6926990754177	1097.865947723538	-25375499804.56777	6222698828.546902	-13249178505.37089	1590.598066372249	67.6672237115867	980.9077923770679	1625.621443030485	78.56036347989279	1019.582030598413	1611.158281066638	113.7495193229555	976.961366431299	2007.280554489019	1052.118623431433	1114.502297460137	1807.532444410327	49.00220917802665	917.6925852273947	1784.884734278692	45.94219381247148	1023.61293383066	1904.54289157132	1027.643895198475	1002.484194397076	1713.487282390434	189.652636059323	1030.87227387935	1684.409232428158	214.7611967831488	990.7073552157051	1741.66547706266	263.1122970748044	1052.061153370063	1718.373525275601	285.0955848359552	1008.390381348177	1916.083886470733	583.5997275706252	1108.841668107927	1858.698325139056	593.5711212404722	1064.949157143515	1917.840651377152	692.5006918013594	1128.68009198206	1863.527399636639	701.3509204391886	1087.340174806331	
